# xmcd CD database file
#
# Track frame offsets:
#	150
#	20446
#	39303
#	57072
#	71763
#	88688
#	102818
#	123146
#	140393
#	159088
#	176717
#	187730
#	201587
#	219870
#	235073
#
# Disc length: 3371 seconds
#
# Revision: 11
# Processed by: cddbd v1.5.2PL0 Copyright (c) Steve Scherf et al.
# Submitted via: CDex 1.51
#
DISCID=be0d290f
DTITLE=Ana Carolina - Estampado
DYEAR=2003
DGENRE=MPB
TTITLE0=Hoje Eu Tô Sozinha
TTITLE1=Encostar Na Tua
TTITLE2=2 Bicudos
TTITLE3=Elevador (Livro de Esquecimento)
TTITLE4=Só Fala Em Mim
TTITLE5=É Hora Da Virada
TTITLE6=Uma Louca Tempestade
TTITLE7=Pra Rua Me Levar
TTITLE8=É Mágoa
TTITLE9=Mais Que Isso
TTITLE10=Vox Populi
TTITLE11=Vestido Estampado
TTITLE12=Nua
TTITLE13=Não Fale Desse Jeito
TTITLE14=O Beat Da Beata
EXTD=YEAR: 2003
EXTT0=
EXTT1=
EXTT2=
EXTT3=
EXTT4=
EXTT5=
EXTT6=
EXTT7=
EXTT8=
EXTT9=
EXTT10=
EXTT11=
EXTT12=
EXTT13=
EXTT14=
PLAYORDER=
